<svg width="62" height="62" viewBox="0 0 62 62" fill="none" xmlns="http://www.w3.org/2000/svg">
<rect x="0.5" y="0.5" width="61" height="61" rx="7.5" fill="white"/>
<rect x="0.5" y="0.5" width="61" height="61" rx="7.5" stroke="#4FB848"/>
<path d="M43 41.6865C43.1048 41.8258 43.1687 41.9915 43.1845 42.1651C43.2003 42.3387 43.1674 42.5132 43.0895 42.6692C43.0116 42.8251 42.8918 42.9562 42.7435 43.0478C42.5952 43.1394 42.4243 43.1878 42.25 43.1877H19.75C19.5759 43.1877 19.4052 43.1392 19.2571 43.0476C19.109 42.9561 18.9893 42.8251 18.9115 42.6694C18.8336 42.5137 18.8007 42.3394 18.8163 42.166C18.8319 41.9926 18.8955 41.8269 19 41.6877C19.8301 40.5747 20.9371 39.6984 22.2109 39.1459C21.5127 38.5086 21.0235 37.6751 20.8074 36.7548C20.5914 35.8345 20.6587 34.8704 21.0004 33.989C21.3422 33.1076 21.9424 32.3502 22.7224 31.816C23.5023 31.2819 24.4256 30.9961 25.3709 30.9961C26.3162 30.9961 27.2394 31.2819 28.0194 31.816C28.7994 32.3502 29.3996 33.1076 29.7414 33.989C30.0831 34.8704 30.1504 35.8345 29.9344 36.7548C29.7183 37.6751 29.2291 38.5086 28.5309 39.1459C29.4499 39.5431 30.285 40.1114 30.9918 40.8205C31.6986 40.1114 32.5337 39.5431 33.4527 39.1459C32.7545 38.5086 32.2653 37.6751 32.0492 36.7548C31.8332 35.8345 31.9005 34.8704 32.2422 33.989C32.584 33.1076 33.1842 32.3502 33.9642 31.816C34.7441 31.2819 35.6674 30.9961 36.6127 30.9961C37.558 30.9961 38.4812 31.2819 39.2612 31.816C40.0412 32.3502 40.6414 33.1076 40.9832 33.989C41.3249 34.8704 41.3922 35.8345 41.1762 36.7548C40.9601 37.6751 40.4709 38.5086 39.7727 39.1459C41.0524 39.6955 42.1653 40.5716 43 41.6865ZM19.1875 30.8127C19.286 30.8865 19.3981 30.9403 19.5173 30.9708C19.6366 31.0014 19.7607 31.0081 19.8826 30.9907C20.0045 30.9733 20.1217 30.9321 20.2277 30.8694C20.3336 30.8066 20.4261 30.7237 20.5 30.6252C21.0676 29.8683 21.8036 29.2541 22.6498 28.831C23.4959 28.4079 24.429 28.1877 25.375 28.1877C26.321 28.1877 27.2541 28.4079 28.1002 28.831C28.9464 29.2541 29.6824 29.8683 30.25 30.6252C30.3373 30.7416 30.4506 30.8361 30.5807 30.9012C30.7109 30.9663 30.8545 31.0002 31 31.0002C31.1455 31.0002 31.2891 30.9663 31.4193 30.9012C31.5494 30.8361 31.6627 30.7416 31.75 30.6252C32.3176 29.8683 33.0536 29.2541 33.8998 28.831C34.7459 28.4079 35.679 28.1877 36.625 28.1877C37.571 28.1877 38.5041 28.4079 39.3502 28.831C40.1964 29.2541 40.9324 29.8683 41.5 30.6252C41.5739 30.7237 41.6666 30.8066 41.7726 30.8693C41.8786 30.932 41.9959 30.9732 42.1178 30.9906C42.2398 31.0079 42.3639 31.0011 42.4832 30.9705C42.6025 30.9398 42.7146 30.886 42.8131 30.8121C42.9116 30.7381 42.9945 30.6455 43.0572 30.5395C43.1199 30.4335 43.1611 30.3162 43.1785 30.1942C43.1958 30.0723 43.189 29.9482 43.1584 29.8289C43.1278 29.7096 43.0739 29.5975 43 29.499C42.1698 28.3863 41.0628 27.5104 39.7891 26.9584C40.4873 26.3211 40.9765 25.4876 41.1926 24.5673C41.4086 23.647 41.3413 22.6829 40.9996 21.8015C40.6578 20.9201 40.0576 20.1627 39.2776 19.6285C38.4977 19.0944 37.5744 18.8086 36.6291 18.8086C35.6838 18.8086 34.7606 19.0944 33.9806 19.6285C33.2006 20.1627 32.6004 20.9201 32.2586 21.8015C31.9169 22.6829 31.8496 23.647 32.0656 24.5673C32.2817 25.4876 32.7709 26.3211 33.4691 26.9584C32.5501 27.3556 31.715 27.9239 31.0082 28.633C30.3014 27.9239 29.4663 27.3556 28.5473 26.9584C29.2455 26.3211 29.7347 25.4876 29.9508 24.5673C30.1668 23.647 30.0995 22.6829 29.7578 21.8015C29.416 20.9201 28.8158 20.1627 28.0358 19.6285C27.2559 19.0944 26.3326 18.8086 25.3873 18.8086C24.442 18.8086 23.5188 19.0944 22.7388 19.6285C21.9588 20.1627 21.3586 20.9201 21.0168 21.8015C20.6751 22.6829 20.6078 23.647 20.8238 24.5673C21.0399 25.4876 21.5291 26.3211 22.2273 26.9584C20.9476 27.5084 19.8347 28.3849 19 29.5002C18.9261 29.5986 18.8724 29.7107 18.8418 29.83C18.8113 29.9493 18.8045 30.0734 18.8219 30.1952C18.8393 30.3171 18.8806 30.4344 18.9433 30.5403C19.006 30.6462 19.089 30.7388 19.1875 30.8127Z" fill="#4FB848"/>
</svg>
