<svg width="62" height="62" viewBox="0 0 62 62" fill="none" xmlns="http://www.w3.org/2000/svg">
<rect x="0.5" y="0.5" width="61" height="61" rx="7.5" fill="white"/>
<rect x="0.5" y="0.5" width="61" height="61" rx="7.5" stroke="#4FB848"/>
<g clip-path="url(#clip0_269_1362)">
<path d="M53.2528 30.7592L49.5142 23.5061C49.3764 23.2391 49.1858 23.0011 48.9532 22.8055C48.7206 22.61 48.4506 22.4608 48.1585 22.3665C47.8664 22.2722 47.558 22.2346 47.251 22.2559C46.9439 22.2771 46.6442 22.3568 46.3689 22.4904L42.7255 24.2561L35.0506 22.2873C34.8537 22.2376 34.6469 22.2376 34.45 22.2873L26.775 24.2561L23.1317 22.4904C22.8564 22.3568 22.5567 22.2771 22.2496 22.2559C21.9425 22.2346 21.6342 22.2722 21.3421 22.3665C21.05 22.4608 20.78 22.61 20.5474 22.8055C20.3148 23.0011 20.1241 23.2391 19.9864 23.5061L16.2478 30.7578C16.1101 31.0247 16.0279 31.3154 16.006 31.6131C15.984 31.9109 16.0228 32.2099 16.1201 32.4931C16.2173 32.7763 16.3712 33.0382 16.5728 33.2637C16.7745 33.4893 17.02 33.6741 17.2953 33.8077L21.2507 35.7268L29.3797 41.3563C29.4995 41.4389 29.6342 41.4991 29.7768 41.5338L39.1525 43.8067C39.3488 43.8544 39.5546 43.852 39.7497 43.7998C39.9448 43.7475 40.1227 43.6471 40.2659 43.5084L46.1257 37.8263L48.3349 35.6842L52.2053 33.8077C52.7609 33.5379 53.1834 33.0653 53.3798 32.4937C53.5762 31.9221 53.5305 31.2982 53.2528 30.7592ZM45.2116 35.4995L40.1706 31.5845C39.9448 31.4092 39.6601 31.321 39.3712 31.337C39.0824 31.353 38.8098 31.472 38.6061 31.6712C35.997 34.2196 33.089 33.8971 31.2344 32.7607L37.5689 26.7946H42.2289L46.2151 34.5236L45.2116 35.4995ZM39.0778 41.4458L30.5634 39.3818L23.3558 34.3901L27.4577 26.4352L34.7503 24.5615L36.186 24.9294L29.5936 31.1342L29.5819 31.147C29.3338 31.3877 29.1445 31.6792 29.0281 32.0003C28.9117 32.3213 28.8711 32.6636 28.9093 33.0019C28.9476 33.3401 29.0637 33.6658 29.2491 33.9547C29.4344 34.2437 29.6844 34.4886 29.9804 34.6713C32.9923 36.5365 36.6269 36.2339 39.4894 33.9611L43.5401 37.116L39.0778 41.4458ZM35.3099 46.3892C35.2466 46.6348 35.1005 46.8529 34.8948 47.0088C34.6891 47.1648 34.4357 47.2496 34.1746 47.25C34.0783 47.2499 33.9823 47.2384 33.8889 47.2159L27.7785 45.7343C27.6358 45.7001 27.501 45.6399 27.3815 45.5567L23.5214 42.8833C23.284 42.7026 23.1277 42.4401 23.085 42.1504C23.0422 41.8608 23.1164 41.5663 23.2919 41.3283C23.4675 41.0903 23.731 40.9272 24.0275 40.8729C24.324 40.8185 24.6308 40.8772 24.8838 41.0367L28.5623 43.5851L34.4573 45.0113C34.7588 45.0844 35.018 45.2706 35.1778 45.529C35.3377 45.7874 35.3852 46.0968 35.3099 46.3892Z" fill="#4FB848"/>
</g>
<defs>
<clipPath id="clip0_269_1362">
<rect width="30" height="30" fill="white" transform="translate(16 16)"/>
</clipPath>
</defs>
</svg>
