<svg width="62" height="62" viewBox="0 0 62 62" fill="none" xmlns="http://www.w3.org/2000/svg">
<rect x="0.5" y="0.5" width="61" height="61" rx="7.5" fill="white"/>
<rect x="0.5" y="0.5" width="61" height="61" rx="7.5" stroke="#4FB848"/>
<path d="M30.9999 24.9064C32.0197 24.9064 33.0166 25.2088 33.8646 25.7754C34.7125 26.3419 35.3734 27.1472 35.7637 28.0894C36.1539 29.0316 36.256 30.0683 36.0571 31.0686C35.8581 32.0688 35.367 32.9875 34.6459 33.7086C33.9248 34.4298 33.0061 34.9208 32.0058 35.1198C31.0056 35.3188 29.9689 35.2166 29.0267 34.8264C28.0845 34.4361 27.2792 33.7752 26.7126 32.9273C26.1461 32.0793 25.8437 31.0824 25.8437 30.0626C25.8437 28.6951 26.3869 27.3836 27.3539 26.4166C28.3209 25.4496 29.6324 24.9064 30.9999 24.9064ZM36.6249 23.5001H42.2499C42.4985 23.5001 42.737 23.4014 42.9128 23.2255C43.0886 23.0497 43.1874 22.8113 43.1874 22.5626C43.1874 22.314 43.0886 22.0755 42.9128 21.8997C42.737 21.7239 42.4985 21.6251 42.2499 21.6251H36.6249C36.3763 21.6251 36.1378 21.7239 35.962 21.8997C35.7862 22.0755 35.6874 22.314 35.6874 22.5626C35.6874 22.8113 35.7862 23.0497 35.962 23.2255C36.1378 23.4014 36.3763 23.5001 36.6249 23.5001ZM41.2972 26.3665C41.0629 26.4495 40.8711 26.6222 40.7641 26.8466C40.657 27.071 40.6435 27.3287 40.7265 27.563C41.3393 29.3009 41.4752 31.1713 41.1201 32.9796C40.765 34.7879 39.9319 36.4679 38.7073 37.845C38.0251 36.8566 37.1589 36.0088 36.1562 35.3478C36.0706 35.291 35.9687 35.264 35.8662 35.2708C35.7638 35.2775 35.6663 35.3178 35.589 35.3853C34.3152 36.4874 32.6872 37.094 31.0028 37.094C29.3185 37.094 27.6904 36.4874 26.4167 35.3853C26.3389 35.3164 26.2403 35.2753 26.1366 35.2685C26.0329 35.2617 25.9298 35.2896 25.8437 35.3478C24.8398 36.0082 23.9728 36.8561 23.2901 37.845C21.9712 36.3588 21.1098 34.5233 20.8094 32.5591C20.5091 30.5949 20.7825 28.5857 21.597 26.7733C22.4114 24.9608 23.7321 23.4223 25.4002 22.3426C27.0684 21.263 29.0129 20.6883 30.9999 20.6876C31.5763 20.6875 32.1517 20.7354 32.7202 20.8306C32.9643 20.8691 33.2138 20.8097 33.4143 20.6652C33.6148 20.5208 33.7502 20.303 33.791 20.0592C33.8318 19.8155 33.7746 19.5655 33.6321 19.3637C33.4895 19.1618 33.273 19.0244 33.0296 18.9814C30.3955 18.5387 27.689 18.9745 25.327 20.2215C22.965 21.4686 21.0786 23.4577 19.9584 25.8825C18.8383 28.3072 18.5465 31.033 19.1281 33.6399C19.7097 36.2468 21.1323 38.5902 23.1769 40.3089C25.2214 42.0276 27.7744 43.0264 30.4425 43.1513C33.1105 43.2761 35.7456 42.5202 37.9418 41C40.1379 39.4797 41.7733 37.2795 42.5958 34.7383C43.4183 32.1972 43.3824 29.456 42.4937 26.9372C42.4106 26.7029 42.238 26.5112 42.0136 26.4041C41.7892 26.2971 41.5315 26.2836 41.2972 26.3665Z" fill="#4FB848"/>
</svg>
