<svg width="30" height="30" viewBox="0 0 30 30" fill="none" xmlns="http://www.w3.org/2000/svg">
<path d="M25.3125 8.4375C25.3125 8.68614 25.2137 8.9246 25.0379 9.10041C24.8621 9.27623 24.6236 9.375 24.375 9.375H20.625C20.3764 9.375 20.1379 9.27623 19.9621 9.10041C19.7863 8.9246 19.6875 8.68614 19.6875 8.4375C19.6875 8.18886 19.7863 7.9504 19.9621 7.77459C20.1379 7.59877 20.3764 7.5 20.625 7.5H24.375C24.6236 7.5 24.8621 7.59877 25.0379 7.77459C25.2137 7.9504 25.3125 8.18886 25.3125 8.4375ZM24.375 11.25H20.625C20.3764 11.25 20.1379 11.3488 19.9621 11.5246C19.7863 11.7004 19.6875 11.9389 19.6875 12.1875C19.6875 12.4361 19.7863 12.6746 19.9621 12.8504C20.1379 13.0262 20.3764 13.125 20.625 13.125H24.375C24.6236 13.125 24.8621 13.0262 25.0379 12.8504C25.2137 12.6746 25.3125 12.4361 25.3125 12.1875C25.3125 11.9389 25.2137 11.7004 25.0379 11.5246C24.8621 11.3488 24.6236 11.25 24.375 11.25ZM29.0625 5.625V24.375C29.0625 24.8723 28.865 25.3492 28.5133 25.7008C28.1617 26.0525 27.6848 26.25 27.1875 26.25H17.8125C17.3152 26.25 16.8383 26.0525 16.4867 25.7008C16.135 25.3492 15.9375 24.8723 15.9375 24.375V22.5H11.25V24.375H13.125C13.3736 24.375 13.6121 24.4738 13.7879 24.6496C13.9637 24.8254 14.0625 25.0639 14.0625 25.3125C14.0625 25.5611 13.9637 25.7996 13.7879 25.9754C13.6121 26.1512 13.3736 26.25 13.125 26.25H7.5C7.25136 26.25 7.0129 26.1512 6.83709 25.9754C6.66127 25.7996 6.5625 25.5611 6.5625 25.3125C6.5625 25.0639 6.66127 24.8254 6.83709 24.6496C7.0129 24.4738 7.25136 24.375 7.5 24.375H9.375V22.5H3.75C3.00408 22.5 2.28871 22.2037 1.76126 21.6762C1.23382 21.1488 0.9375 20.4334 0.9375 19.6875V11.25C0.9375 10.5041 1.23382 9.78871 1.76126 9.26126C2.28871 8.73382 3.00408 8.4375 3.75 8.4375H15.9375V5.625C15.9375 5.12772 16.135 4.65081 16.4867 4.29917C16.8383 3.94754 17.3152 3.75 17.8125 3.75H27.1875C27.6848 3.75 28.1617 3.94754 28.5133 4.29917C28.865 4.65081 29.0625 5.12772 29.0625 5.625ZM15.9375 20.625V10.3125H3.75C3.50136 10.3125 3.2629 10.4113 3.08709 10.5871C2.91127 10.7629 2.8125 11.0014 2.8125 11.25V19.6875C2.8125 19.9361 2.91127 20.1746 3.08709 20.3504C3.2629 20.5262 3.50136 20.625 3.75 20.625H15.9375ZM27.1875 24.375V5.625H17.8125V24.375H27.1875ZM22.5 19.6875C22.2219 19.6875 21.95 19.77 21.7187 19.9245C21.4875 20.079 21.3072 20.2986 21.2008 20.5556C21.0944 20.8126 21.0665 21.0953 21.1208 21.3681C21.175 21.6409 21.309 21.8915 21.5056 22.0881C21.7023 22.2848 21.9529 22.4187 22.2257 22.473C22.4984 22.5272 22.7812 22.4994 23.0381 22.393C23.2951 22.2865 23.5147 22.1063 23.6693 21.875C23.8238 21.6438 23.9062 21.3719 23.9062 21.0938C23.9062 20.7208 23.7581 20.3631 23.4944 20.0994C23.2306 19.8357 22.873 19.6875 22.5 19.6875Z" fill="#4FB848"/>
</svg>
