<svg width="62" height="62" viewBox="0 0 62 62" fill="none" xmlns="http://www.w3.org/2000/svg">
<rect x="0.5" y="0.5" width="61" height="61" rx="7.5" fill="white"/>
<rect x="0.5" y="0.5" width="61" height="61" rx="7.5" stroke="#4FB848"/>
<path d="M31 18.8125C24.6918 18.8125 19.75 21.6953 19.75 25.375V36.625C19.75 40.3047 24.6918 43.1875 31 43.1875C37.3082 43.1875 42.25 40.3047 42.25 36.625V25.375C42.25 21.6953 37.3082 18.8125 31 18.8125ZM40.375 31C40.375 32.1273 39.4516 33.277 37.8426 34.1547C36.0309 35.1426 33.6004 35.6875 31 35.6875C28.3996 35.6875 25.9691 35.1426 24.1574 34.1547C22.5484 33.277 21.625 32.1273 21.625 31V29.05C23.6242 30.8078 27.0426 31.9375 31 31.9375C34.9574 31.9375 38.3758 30.8031 40.375 29.05V31ZM37.8426 39.7797C36.0309 40.7676 33.6004 41.3125 31 41.3125C28.3996 41.3125 25.9691 40.7676 24.1574 39.7797C22.5484 38.902 21.625 37.7523 21.625 36.625V34.675C23.6242 36.4328 27.0426 37.5625 31 37.5625C34.9574 37.5625 38.3758 36.4281 40.375 34.675V36.625C40.375 37.7523 39.4516 38.902 37.8426 39.7797Z" fill="#4FB848"/>
</svg>
