<svg width="62" height="62" viewBox="0 0 62 62" fill="none" xmlns="http://www.w3.org/2000/svg">
<rect x="0.5" y="0.5" width="61" height="61" rx="7.5" fill="white"/>
<rect x="0.5" y="0.5" width="61" height="61" rx="7.5" stroke="#4FB848"/>
<path d="M32.875 27.25V25.375H31C30.7514 25.375 30.5129 25.4738 30.3371 25.6496C30.1613 25.8254 30.0625 26.0639 30.0625 26.3125V35.6875C30.0625 35.9361 30.1613 36.1746 30.3371 36.3504C30.5129 36.5262 30.7514 36.625 31 36.625H32.875V34.75C32.875 34.2527 33.0725 33.7758 33.4242 33.4242C33.7758 33.0725 34.2527 32.875 34.75 32.875H40.375C40.8723 32.875 41.3492 33.0725 41.7008 33.4242C42.0525 33.7758 42.25 34.2527 42.25 34.75V40.375C42.25 40.8723 42.0525 41.3492 41.7008 41.7008C41.3492 42.0525 40.8723 42.25 40.375 42.25H34.75C34.2527 42.25 33.7758 42.0525 33.4242 41.7008C33.0725 41.3492 32.875 40.8723 32.875 40.375V38.5H31C30.2541 38.5 29.5387 38.2037 29.0113 37.6762C28.4838 37.1488 28.1875 36.4334 28.1875 35.6875V31.9375H24.4375V32.875C24.4375 33.3723 24.24 33.8492 23.8883 34.2008C23.5367 34.5525 23.0598 34.75 22.5625 34.75H18.8125C18.3152 34.75 17.8383 34.5525 17.4867 34.2008C17.135 33.8492 16.9375 33.3723 16.9375 32.875V29.125C16.9375 28.6277 17.135 28.1508 17.4867 27.7992C17.8383 27.4475 18.3152 27.25 18.8125 27.25H22.5625C23.0598 27.25 23.5367 27.4475 23.8883 27.7992C24.24 28.1508 24.4375 28.6277 24.4375 29.125V30.0625H28.1875V26.3125C28.1875 25.5666 28.4838 24.8512 29.0113 24.3238C29.5387 23.7963 30.2541 23.5 31 23.5H32.875V21.625C32.875 21.1277 33.0725 20.6508 33.4242 20.2992C33.7758 19.9475 34.2527 19.75 34.75 19.75H40.375C40.8723 19.75 41.3492 19.9475 41.7008 20.2992C42.0525 20.6508 42.25 21.1277 42.25 21.625V27.25C42.25 27.7473 42.0525 28.2242 41.7008 28.5758C41.3492 28.9275 40.8723 29.125 40.375 29.125H34.75C34.2527 29.125 33.7758 28.9275 33.4242 28.5758C33.0725 28.2242 32.875 27.7473 32.875 27.25Z" fill="#4FB848"/>
</svg>
