<svg width="62" height="62" viewBox="0 0 62 62" fill="none" xmlns="http://www.w3.org/2000/svg">
<rect x="0.5" y="0.5" width="61" height="61" rx="7.5" fill="white"/>
<rect x="0.5" y="0.5" width="61" height="61" rx="7.5" stroke="#4FB848"/>
<path d="M23.4985 24.125C23.4985 22.6332 24.0911 21.2024 25.146 20.1475C26.2009 19.0926 27.6316 18.5 29.1235 18.5C30.6153 18.5 32.0461 19.0926 33.1009 20.1475C34.1558 21.2024 34.7485 22.6332 34.7485 24.125C34.7485 24.3736 34.6497 24.6121 34.4739 24.7879C34.2981 24.9637 34.0596 25.0625 33.811 25.0625C33.5623 25.0625 33.3239 24.9637 33.1481 24.7879C32.9722 24.6121 32.8735 24.3736 32.8735 24.125C32.8735 23.1304 32.4784 22.1766 31.7751 21.4733C31.0719 20.7701 30.118 20.375 29.1235 20.375C28.1289 20.375 27.1751 20.7701 26.4718 21.4733C25.7686 22.1766 25.3735 23.1304 25.3735 24.125C25.3735 24.3736 25.2747 24.6121 25.0989 24.7879C24.9231 24.9637 24.6846 25.0625 24.436 25.0625C24.1873 25.0625 23.9489 24.9637 23.7731 24.7879C23.5972 24.6121 23.4985 24.3736 23.4985 24.125ZM40.2832 30.6875C39.2742 30.7344 38.4985 31.6039 38.4985 32.6129V33.466C38.5017 33.708 38.4133 33.9422 38.2508 34.1215C38.0884 34.3009 37.8641 34.4121 37.6231 34.4328C37.4948 34.4413 37.3662 34.4234 37.2452 34.3801C37.1242 34.3368 37.0134 34.2691 36.9196 34.1812C36.8259 34.0933 36.7512 33.987 36.7003 33.869C36.6493 33.751 36.6232 33.6238 36.6235 33.4953V30.7402C36.6235 29.7312 35.8477 28.8652 34.8387 28.8148C34.5852 28.8026 34.3318 28.842 34.094 28.9306C33.8561 29.0192 33.6387 29.1552 33.455 29.3303C33.2713 29.5054 33.125 29.7159 33.025 29.9492C32.925 30.1825 32.8735 30.4337 32.8735 30.6875V32.5309C32.8767 32.7728 32.7883 33.007 32.6258 33.1864C32.4634 33.3657 32.2392 33.4769 31.9981 33.4977C31.8698 33.5062 31.7412 33.4882 31.6202 33.4449C31.4992 33.4017 31.3884 33.334 31.2946 33.246C31.2009 33.1581 31.1262 33.0519 31.0753 32.9339C31.0243 32.8159 30.9982 32.6887 30.9985 32.5602V24.1777C30.9985 23.1687 30.2227 22.3027 29.2137 22.2523C28.9602 22.2401 28.7068 22.2795 28.469 22.3681C28.2311 22.4567 28.0137 22.5927 27.83 22.7678C27.6463 22.9429 27.5 23.1534 27.4 23.3867C27.3 23.62 27.2485 23.8712 27.2485 24.125V38.157C27.2513 38.3838 27.1738 38.6042 27.0296 38.7792C26.8855 38.9543 26.684 39.0726 26.461 39.1133H26.4469C26.3071 39.129 26.1657 39.103 26.0406 39.0385C25.9155 38.9741 25.8122 38.8741 25.7438 38.7512L23.2828 34.4809C22.7789 33.6066 21.6727 33.2422 20.775 33.7051C20.5482 33.8204 20.3472 33.9808 20.1844 34.1763C20.0215 34.3718 19.9001 34.5985 19.8276 34.8424C19.7552 35.0863 19.7331 35.3425 19.7628 35.5952C19.7925 35.848 19.8734 36.092 20.0004 36.3125L23.6274 43.3496C23.7101 43.4906 23.8283 43.6074 23.9701 43.6886C24.1119 43.7698 24.2725 43.8125 24.436 43.8125H40.3735C40.5476 43.8126 40.7184 43.7642 40.8666 43.6727C41.0148 43.5813 41.1346 43.4503 41.2125 43.2945C41.2547 43.2102 42.2485 41.5297 42.2485 38.5309V32.5625C42.2488 32.3085 42.1974 32.0571 42.0976 31.8235C41.9978 31.5899 41.8516 31.3791 41.6678 31.2037C41.484 31.0284 41.2665 30.8922 41.0285 30.8035C40.7905 30.7147 40.5369 30.6753 40.2832 30.6875Z" fill="#4FB848"/>
</svg>
