<svg width="118" height="39" viewBox="0 0 118 39" fill="none" xmlns="http://www.w3.org/2000/svg">
<g clip-path="url(#clip0_281_5)">
<path d="M22.9973 6.37073C22.5036 5.75537 21.9555 5.17959 21.359 4.65327C20.5923 3.97657 19.7464 3.38199 18.8318 2.8903C14.4862 0.555008 9.63602 0.924024 5.53084 3.91128C5.36018 4.03544 5.19249 4.16405 5.02777 4.29563L7.75582 6.78328C10.6718 4.70966 14.0721 4.45194 17.1138 6.08778C17.6179 6.35886 18.0937 6.67198 18.5374 7.01972C19.1706 7.51587 19.7385 8.08423 20.2302 8.70552C20.4908 9.03546 20.7308 9.38024 20.9469 9.73689L23.7432 7.39121C23.5107 7.04099 23.2619 6.70017 22.9973 6.37023V6.37073ZM24.8948 9.51776L21.9516 12.0024C22.187 12.8003 22.3117 13.6239 22.3117 14.4485C22.3117 14.5702 22.3087 14.6919 22.3033 14.8136C22.143 18.389 20.0041 21.4994 16.7235 22.929L15.6338 23.4044V27.9745H10.3093V23.4044L9.22001 22.929C5.66044 21.3787 3.46959 17.8592 3.63728 13.9628C3.67537 13.0941 3.85641 12.2305 4.16409 11.4004C4.42478 10.695 4.77846 10.0134 5.21277 9.37332C5.4784 8.98303 5.77372 8.60709 6.09821 8.25143L3.41666 5.80731C3.09414 6.1605 2.7924 6.52902 2.51242 6.9109C2.42289 7.03258 2.33583 7.15526 2.25075 7.27942C1.90992 7.77556 1.60422 8.29199 1.33711 8.82375C0.549115 10.3903 0.0861125 12.0885 0.0124082 13.807C-0.202274 18.808 2.38282 23.3593 6.67944 25.7228V27.9809H10.2939V31.6058H19.2646V25.7208C21.2343 24.6385 22.8494 23.0937 23.997 21.2486C25.1451 19.404 25.8263 17.2592 25.9296 14.9788C26.0142 13.1144 25.6417 11.2471 24.8953 9.51825L24.8948 9.51776Z" fill="#4FB848"/>
<path d="M24.939 6.39002L23.7444 7.39171L20.9481 9.73788L18.918 11.44L18.1172 10.4908L20.2319 8.70602L22.9985 6.37073L24.1224 5.42197L24.939 6.39002Z" fill="#4FB848"/>
<path d="M6.93744 9.01666L5.97632 10.0708L5.21207 9.37381L2.51172 6.91139C2.79219 6.53001 3.09344 6.16149 3.41596 5.8078L6.09751 8.25192L6.93695 9.01666H6.93744Z" fill="#4FB848"/>
<path d="M29.2412 2.779L24.9362 6.38953L23.7416 7.39171L20.9453 9.73739L18.9152 11.4395L11.2559 17.8642L4.16292 11.4004L1.33594 8.82375C1.60305 8.29199 1.90875 7.77556 2.24957 7.27942C2.33416 7.15526 2.42172 7.03259 2.51125 6.9109C2.79172 6.52952 3.09297 6.16099 3.41549 5.80731L6.09704 8.25143L6.93648 9.01617L11.3543 13.0432L18.5353 7.02022L21.3568 4.65327L26.9059 0L29.2412 2.779Z" fill="#4FB848"/>
<path d="M11.0975 36.0098H9.02344V38.0839H11.0975V36.0098Z" fill="#4FB848"/>
<path d="M15.2463 37.9647H14.2109V39H15.2463V37.9647Z" fill="#4FB848"/>
<path d="M6.67896 31.5974H3.0625V35.2139H6.67896V31.5974Z" fill="#4FB848"/>
<path d="M48.3363 22.0302L44.9909 17.3369V25.5393H41.9102V12.3205H44.6135L48.7236 17.9374L52.8852 12.3205H55.5786V25.5398H52.5053V17.3641L49.1035 22.0302H48.3363Z" fill="#30434D"/>
<path d="M63.2734 12.3205H72.5864V14.9749H66.3542V17.6757H71.702V20.3201H66.3542V22.8958H72.672V25.5403H63.2734V12.3205Z" fill="#30434D"/>
<path d="M84.8273 21.2338H82.862V25.5398H79.7812V12.3205H85.5747C86.2682 12.3205 86.9053 12.4283 87.4885 12.6465C88.0718 12.8646 88.5768 13.1684 89.0007 13.5606C89.4247 13.9529 89.7556 14.4208 89.9935 14.9699C90.229 15.5165 90.3462 16.1244 90.3462 16.7907C90.3462 17.2587 90.2898 17.6975 90.1721 18.109C90.0543 18.5206 89.8901 18.8955 89.6769 19.2314C89.4613 19.5673 89.204 19.866 88.8978 20.1257C88.5941 20.3854 88.2533 20.6011 87.8783 20.7777L90.6672 25.5393H87.1309L84.8273 21.2333V21.2338ZM85.4471 18.5893C85.7018 18.5893 85.9373 18.5453 86.1579 18.4592C86.3785 18.3712 86.5719 18.2485 86.7362 18.0942C86.9004 17.9374 87.0305 17.7509 87.126 17.5303C87.219 17.3096 87.2655 17.0648 87.2655 16.7903C87.2655 16.5157 87.219 16.2803 87.126 16.0577C87.0305 15.8346 86.9004 15.6412 86.7362 15.4794C86.5719 15.3176 86.3785 15.19 86.1579 15.0995C85.9373 15.009 85.7018 14.965 85.4471 14.965H82.8615V18.5898H85.4471V18.5893Z" fill="#30434D"/>
<path d="M97.4414 12.3205H100.522V25.5398H97.4414V12.3205Z" fill="#30434D"/>
<path d="M111 14.965H107.305V12.3205H117.764V14.965H114.071V25.5398H111V14.965Z" fill="#30434D"/>
</g>
<defs>
<clipPath id="clip0_281_5">
<rect width="117.763" height="39" fill="white"/>
</clipPath>
</defs>
</svg>
