<svg width="62" height="62" viewBox="0 0 62 62" fill="none" xmlns="http://www.w3.org/2000/svg">
<rect x="0.5" y="0.5" width="61" height="61" rx="7.5" fill="white"/>
<rect x="0.5" y="0.5" width="61" height="61" rx="7.5" stroke="#4FB848"/>
<path d="M30.9999 24.9063C32.0197 24.9063 33.0166 25.2087 33.8646 25.7752C34.7125 26.3418 35.3734 27.1471 35.7637 28.0893C36.1539 29.0315 36.256 30.0682 36.0571 31.0684C35.8581 32.0687 35.367 32.9874 34.6459 33.7085C33.9248 34.4296 33.0061 34.9207 32.0058 35.1197C31.0056 35.3186 29.9689 35.2165 29.0267 34.8263C28.0845 34.436 27.2792 33.7751 26.7126 32.9272C26.1461 32.0792 25.8437 31.0823 25.8437 30.0625C25.8437 28.695 26.3869 27.3835 27.3539 26.4165C28.3209 25.4495 29.6324 24.9063 30.9999 24.9063ZM36.6249 23.5H42.2499C42.4985 23.5 42.737 23.4012 42.9128 23.2254C43.0886 23.0496 43.1874 22.8111 43.1874 22.5625C43.1874 22.3139 43.0886 22.0754 42.9128 21.8996C42.737 21.7238 42.4985 21.625 42.2499 21.625H36.6249C36.3763 21.625 36.1378 21.7238 35.962 21.8996C35.7862 22.0754 35.6874 22.3139 35.6874 22.5625C35.6874 22.8111 35.7862 23.0496 35.962 23.2254C36.1378 23.4012 36.3763 23.5 36.6249 23.5ZM41.2972 26.3664C41.0629 26.4494 40.8711 26.6221 40.7641 26.8465C40.657 27.0709 40.6435 27.3285 40.7265 27.5629C41.3393 29.3008 41.4752 31.1712 41.1201 32.9795C40.765 34.7877 39.9319 36.4678 38.7073 37.8449C38.0251 36.8565 37.1589 36.0087 36.1562 35.3477C36.0706 35.2909 35.9687 35.2639 35.8662 35.2706C35.7638 35.2774 35.6663 35.3176 35.589 35.3852C34.3152 36.4873 32.6872 37.0938 31.0028 37.0938C29.3185 37.0938 27.6904 36.4873 26.4167 35.3852C26.3389 35.3162 26.2403 35.2752 26.1366 35.2684C26.0329 35.2616 25.9298 35.2895 25.8437 35.3477C24.8398 36.0081 23.9728 36.856 23.2901 37.8449C21.9712 36.3587 21.1098 34.5231 20.8094 32.5589C20.5091 30.5948 20.7825 28.5856 21.597 26.7732C22.4114 24.9607 23.7321 23.4222 25.4002 22.3425C27.0684 21.2629 29.0129 20.6882 30.9999 20.6875C31.5763 20.6874 32.1517 20.7352 32.7202 20.8305C32.9643 20.869 33.2138 20.8096 33.4143 20.6651C33.6148 20.5207 33.7502 20.3029 33.791 20.0591C33.8318 19.8154 33.7746 19.5654 33.6321 19.3635C33.4895 19.1617 33.273 19.0243 33.0296 18.9813C30.3955 18.5386 27.689 18.9744 25.327 20.2214C22.965 21.4685 21.0786 23.4576 19.9584 25.8824C18.8383 28.3071 18.5465 31.0329 19.1281 33.6398C19.7097 36.2467 21.1323 38.5901 23.1769 40.3088C25.2214 42.0275 27.7744 43.0263 30.4425 43.1511C33.1105 43.276 35.7456 42.5201 37.9418 40.9999C40.1379 39.4796 41.7733 37.2794 42.5958 34.7382C43.4183 32.197 43.3824 29.4559 42.4937 26.9371C42.4106 26.7028 42.238 26.511 42.0136 26.404C41.7892 26.297 41.5315 26.2835 41.2972 26.3664Z" fill="#4FB848"/>
</svg>
