<svg width="63" height="62" viewBox="0 0 63 62" fill="none" xmlns="http://www.w3.org/2000/svg">
<rect x="1" y="0.5" width="61" height="61" rx="7.5" fill="white"/>
<rect x="1" y="0.5" width="61" height="61" rx="7.5" stroke="#4FB848"/>
<path d="M42.75 21.625V37.9809C42.7513 38.0766 42.7233 38.1705 42.6696 38.2498C42.616 38.3292 42.5393 38.3902 42.45 38.4246C42.3606 38.4591 42.2629 38.4654 42.1699 38.4426C42.0768 38.4198 41.993 38.3691 41.9297 38.2973L30.1875 25.375H40.875V21.625H38.0625V22.5625C38.0628 22.6909 38.0367 22.818 37.9858 22.936C37.9349 23.0539 37.8603 23.1601 37.7667 23.248C37.6731 23.3359 37.5624 23.4036 37.4416 23.4469C37.3207 23.4903 37.1922 23.5084 37.0641 23.5C36.8225 23.4793 36.5977 23.3678 36.4351 23.188C36.2724 23.0081 36.1839 22.7733 36.1875 22.5309V21.625H26.7785L25.7871 20.534C25.7258 20.4665 25.6855 20.3826 25.6711 20.2925C25.6567 20.2025 25.669 20.1102 25.7063 20.027C25.7436 19.9437 25.8044 19.8732 25.8812 19.824C25.958 19.7748 26.0475 19.7491 26.1387 19.75H36.1875V18.8125C36.1872 18.6841 36.2133 18.557 36.2642 18.4391C36.3151 18.3212 36.3897 18.215 36.4833 18.1271C36.5769 18.0392 36.6876 17.9715 36.8084 17.9281C36.9293 17.8848 37.0578 17.8667 37.1859 17.875C37.4275 17.8958 37.6523 18.0073 37.8149 18.1871C37.9776 18.3669 38.0661 18.6017 38.0625 18.8442V19.75H40.875C41.3723 19.75 41.8492 19.9476 42.2008 20.2992C42.5525 20.6508 42.75 21.1277 42.75 21.625ZM41.5687 40.6821C41.6909 40.8165 41.7713 40.9834 41.8004 41.1627C41.8294 41.342 41.8057 41.5258 41.7322 41.6919C41.6588 41.8579 41.5386 41.9991 41.3865 42.0982C41.2343 42.1973 41.0566 42.25 40.875 42.25H22.125C21.6277 42.25 21.1508 42.0525 20.7992 41.7009C20.4475 41.3492 20.25 40.8723 20.25 40.375V21.625C20.25 21.1277 20.4475 20.6508 20.7992 20.2992C21.1508 19.9476 21.6277 19.75 22.125 19.75C22.2558 19.7499 22.3853 19.7771 22.505 19.83C22.6246 19.8829 22.7319 19.9602 22.8199 20.0571L41.5687 40.6821ZM25.1191 25.375L22.125 22.0809V25.375H25.1191Z" fill="#4FB848"/>
</svg>
