<svg width="62" height="62" viewBox="0 0 62 62" fill="none" xmlns="http://www.w3.org/2000/svg">
<rect x="0.5" y="0.5" width="61" height="61" rx="7.5" fill="white"/>
<rect x="0.5" y="0.5" width="61" height="61" rx="7.5" stroke="#4FB848"/>
<path d="M43.1875 23.4999C43.1872 22.7986 42.9902 22.1115 42.6189 21.5165C42.2476 20.9216 41.7169 20.4427 41.0871 20.1342C40.4574 19.8257 39.7537 19.6999 39.056 19.7713C38.3584 19.8426 37.6947 20.1082 37.1404 20.5378C36.5861 20.9674 36.1633 21.5438 35.9201 22.2016C35.677 22.8594 35.6231 23.5722 35.7647 24.259C35.9064 24.9459 36.2377 25.5793 36.7212 26.0872C37.2047 26.5952 37.821 26.9574 38.5 27.1328V29.1249C38.5 29.3736 38.4012 29.612 38.2254 29.7879C38.0496 29.9637 37.8111 30.0624 37.5625 30.0624H27.25C26.9306 30.0624 26.6135 30.1171 26.3125 30.2242V27.1328C27.1963 26.9046 27.9664 26.3619 28.4787 25.6065C28.991 24.8511 29.2101 23.9348 29.0951 23.0293C28.9801 22.1239 28.5388 21.2914 27.854 20.6881C27.1691 20.0847 26.2877 19.7518 25.375 19.7518C24.4623 19.7518 23.5809 20.0847 22.896 20.6881C22.2112 21.2914 21.7699 22.1239 21.6549 23.0293C21.5399 23.9348 21.7591 24.8511 22.2713 25.6065C22.7836 26.3619 23.5538 26.9046 24.4375 27.1328V34.8671C23.5538 35.0953 22.7836 35.638 22.2713 36.3934C21.7591 37.1488 21.5399 38.0651 21.6549 38.9706C21.7699 39.876 22.2112 40.7084 22.896 41.3118C23.5809 41.9152 24.4623 42.2481 25.375 42.2481C26.2877 42.2481 27.1691 41.9152 27.854 41.3118C28.5388 40.7084 28.9801 39.876 29.0951 38.9706C29.2101 38.0651 28.991 37.1488 28.4787 36.3934C27.9664 35.638 27.1963 35.0953 26.3125 34.8671V32.8749C26.3125 32.6263 26.4113 32.3878 26.5871 32.212C26.7629 32.0362 27.0014 31.9374 27.25 31.9374H37.5625C38.3084 31.9374 39.0238 31.6411 39.5512 31.1137C40.0787 30.5862 40.375 29.8709 40.375 29.1249V27.1328C41.1797 26.9237 41.8923 26.4537 42.4013 25.7963C42.9102 25.139 43.1867 24.3313 43.1875 23.4999ZM23.5 23.4999C23.5 23.1291 23.61 22.7666 23.816 22.4582C24.022 22.1499 24.3149 21.9096 24.6575 21.7677C25.0001 21.6258 25.3771 21.5886 25.7408 21.661C26.1045 21.7333 26.4386 21.9119 26.7008 22.1741C26.9631 22.4363 27.1416 22.7704 27.214 23.1341C27.2863 23.4979 27.2492 23.8749 27.1073 24.2175C26.9654 24.5601 26.725 24.8529 26.4167 25.0589C26.1084 25.265 25.7458 25.3749 25.375 25.3749C24.8777 25.3749 24.4008 25.1774 24.0492 24.8258C23.6976 24.4741 23.5 23.9972 23.5 23.4999ZM27.25 38.4999C27.25 38.8708 27.14 39.2333 26.934 39.5416C26.728 39.85 26.4352 40.0903 26.0925 40.2322C25.7499 40.3741 25.3729 40.4113 25.0092 40.3389C24.6455 40.2666 24.3114 40.088 24.0492 39.8258C23.787 39.5635 23.6084 39.2295 23.536 38.8657C23.4637 38.502 23.5008 38.125 23.6427 37.7824C23.7846 37.4398 24.025 37.147 24.3333 36.9409C24.6417 36.7349 25.0042 36.6249 25.375 36.6249C25.8723 36.6249 26.3492 36.8225 26.7008 37.1741C27.0525 37.5257 27.25 38.0027 27.25 38.4999Z" fill="#4FB848"/>
</svg>
