<svg width="62" height="62" viewBox="0 0 62 62" fill="none" xmlns="http://www.w3.org/2000/svg">
<rect x="0.5" y="0.5" width="61" height="61" rx="7.5" fill="white"/>
<rect x="0.5" y="0.5" width="61" height="61" rx="7.5" stroke="#4FB848"/>
<path d="M39.2181 39.7715C39.3331 39.9082 39.4067 40.0749 39.4301 40.252C39.4536 40.4291 39.4259 40.6092 39.3504 40.7712C39.275 40.9331 39.1548 41.07 39.0041 41.166C38.8534 41.2619 38.6784 41.3127 38.4998 41.3125H18.8123C18.6337 41.3125 18.4589 41.2615 18.3084 41.1655C18.1579 41.0695 18.0379 40.9325 17.9625 40.7706C17.8872 40.6088 17.8597 40.4287 17.8831 40.2517C17.9066 40.0748 17.9802 39.9082 18.0951 39.7715C19.8459 37.6879 22.0232 36.2079 24.4431 35.4157C22.9735 34.5003 21.842 33.1312 21.2197 31.5155C20.5975 29.8998 20.5184 28.1254 20.9944 26.4607C21.4704 24.7961 22.4756 23.3317 23.858 22.2892C25.2404 21.2468 26.9246 20.6829 28.656 20.6829C30.3874 20.6829 32.0717 21.2468 33.4541 22.2892C34.8364 23.3317 35.8417 24.7961 36.3177 26.4607C36.7937 28.1254 36.7146 29.8998 36.0924 31.5155C35.4701 33.1312 34.3386 34.5003 32.8689 35.4157C35.2888 36.2079 37.4662 37.6879 39.2181 39.7715ZM39.0693 23.1942C38.956 23.2425 38.8534 23.3126 38.7672 23.4006C38.681 23.4886 38.613 23.5927 38.5671 23.707C38.5212 23.8212 38.4982 23.9434 38.4996 24.0666C38.5009 24.1897 38.5264 24.3114 38.5748 24.4247C39.1439 25.7628 39.4373 27.2021 39.4373 28.6563C39.4373 30.1105 39.1439 31.5498 38.5748 32.8879C38.477 33.1167 38.4742 33.3749 38.5668 33.6058C38.6594 33.8366 38.84 34.0212 39.0687 34.119C39.2975 34.2167 39.5557 34.2196 39.7866 34.127C40.0174 34.0343 40.202 33.8538 40.2998 33.625C40.9679 32.0537 41.3123 30.3638 41.3123 28.6563C41.3123 26.9488 40.9679 25.2589 40.2998 23.6875C40.202 23.459 40.0175 23.2786 39.7867 23.1861C39.556 23.0935 39.2979 23.0965 39.0693 23.1942ZM43.7392 22.1934C43.6932 22.0767 43.6243 21.9705 43.5365 21.8809C43.4486 21.7913 43.3437 21.7203 43.228 21.672C43.1122 21.6238 42.9879 21.5992 42.8625 21.5998C42.7371 21.6004 42.6131 21.6262 42.4978 21.6756C42.3825 21.725 42.2783 21.797 42.1914 21.8874C42.1044 21.9778 42.0365 22.0848 41.9916 22.2019C41.9468 22.319 41.9258 22.444 41.9301 22.5693C41.9344 22.6947 41.9638 22.8179 42.0166 22.9317C42.7891 24.7414 43.1873 26.6887 43.1873 28.6563C43.1873 30.6239 42.7891 32.5712 42.0166 34.3809C41.9638 34.4947 41.9344 34.6179 41.9301 34.7433C41.9258 34.8686 41.9468 34.9936 41.9916 35.1107C42.0365 35.2278 42.1044 35.3348 42.1914 35.4252C42.2783 35.5156 42.3825 35.5876 42.4978 35.637C42.6131 35.6864 42.7371 35.7122 42.8625 35.7128C42.9879 35.7134 43.1122 35.6888 43.228 35.6406C43.3437 35.5923 43.4486 35.5213 43.5365 35.4317C43.6243 35.3421 43.6932 35.2359 43.7392 35.1192C44.6122 33.0764 45.0623 30.8778 45.0623 28.6563C45.0623 26.4348 44.6122 24.2362 43.7392 22.1934Z" fill="#4FB848"/>
</svg>
