<svg width="62" height="62" viewBox="0 0 62 62" fill="none" xmlns="http://www.w3.org/2000/svg">
<rect x="0.5" y="0.5" width="61" height="61" rx="7.5" fill="white"/>
<rect x="0.5" y="0.5" width="61" height="61" rx="7.5" stroke="#4FB848"/>
<path d="M40.375 19.75H37.5625V18.8125C37.5625 18.5639 37.4637 18.3254 37.2879 18.1496C37.1121 17.9738 36.8736 17.875 36.625 17.875C36.3764 17.875 36.1379 17.9738 35.9621 18.1496C35.7863 18.3254 35.6875 18.5639 35.6875 18.8125V19.75H26.3125V18.8125C26.3125 18.5639 26.2137 18.3254 26.0379 18.1496C25.8621 17.9738 25.6236 17.875 25.375 17.875C25.1264 17.875 24.8879 17.9738 24.7121 18.1496C24.5363 18.3254 24.4375 18.5639 24.4375 18.8125V19.75H21.625C21.1277 19.75 20.6508 19.9475 20.2992 20.2992C19.9475 20.6508 19.75 21.1277 19.75 21.625V40.375C19.75 40.8723 19.9475 41.3492 20.2992 41.7008C20.6508 42.0525 21.1277 42.25 21.625 42.25H40.375C40.8723 42.25 41.3492 42.0525 41.7008 41.7008C42.0525 41.3492 42.25 40.8723 42.25 40.375V21.625C42.25 21.1277 42.0525 20.6508 41.7008 20.2992C41.3492 19.9475 40.8723 19.75 40.375 19.75ZM33.8125 34.75H28.1875C27.9389 34.75 27.7004 34.6512 27.5246 34.4754C27.3488 34.2996 27.25 34.0611 27.25 33.8125C27.25 33.5639 27.3488 33.3254 27.5246 33.1496C27.7004 32.9738 27.9389 32.875 28.1875 32.875H33.8125C34.0611 32.875 34.2996 32.9738 34.4754 33.1496C34.6512 33.3254 34.75 33.5639 34.75 33.8125C34.75 34.0611 34.6512 34.2996 34.4754 34.4754C34.2996 34.6512 34.0611 34.75 33.8125 34.75ZM40.375 25.375H21.625V21.625H24.4375V22.5625C24.4375 22.8111 24.5363 23.0496 24.7121 23.2254C24.8879 23.4012 25.1264 23.5 25.375 23.5C25.6236 23.5 25.8621 23.4012 26.0379 23.2254C26.2137 23.0496 26.3125 22.8111 26.3125 22.5625V21.625H35.6875V22.5625C35.6875 22.8111 35.7863 23.0496 35.9621 23.2254C36.1379 23.4012 36.3764 23.5 36.625 23.5C36.8736 23.5 37.1121 23.4012 37.2879 23.2254C37.4637 23.0496 37.5625 22.8111 37.5625 22.5625V21.625H40.375V25.375Z" fill="#4FB848"/>
</svg>
