<svg width="62" height="62" viewBox="0 0 62 62" fill="none" xmlns="http://www.w3.org/2000/svg">
<rect x="0.5" y="0.5" width="61" height="61" rx="7.5" fill="white"/>
<rect x="0.5" y="0.5" width="61" height="61" rx="7.5" stroke="#4FB848"/>
<path d="M44.6219 23.0313C44.4869 22.9471 44.3327 22.8986 44.1738 22.8904C44.015 22.8822 43.8566 22.9145 43.7137 22.9844C38.6828 25.4454 35.0898 24.2922 31.2918 23.0758C27.2969 21.8044 23.1719 20.486 17.4637 23.2727C17.306 23.3497 17.1731 23.4693 17.0801 23.6181C16.9871 23.7668 16.9377 23.9387 16.9375 24.1141V38.1684C16.9375 38.3275 16.9779 38.4839 17.055 38.6231C17.1322 38.7622 17.2434 38.8794 17.3783 38.9637C17.5132 39.0479 17.6673 39.0965 17.8262 39.1048C17.985 39.1131 18.1434 39.0808 18.2863 39.011C23.3172 36.5501 26.9102 37.7032 30.7141 38.9196C32.9687 39.6403 35.2656 40.3751 37.8625 40.3751C39.8652 40.3751 42.0496 39.9391 44.5316 38.7274C44.6893 38.6504 44.8222 38.5308 44.9152 38.382C45.0082 38.2333 45.0576 38.0614 45.0578 37.886V23.8317C45.0592 23.6722 45.0199 23.515 44.9437 23.375C44.8674 23.2349 44.7566 23.1166 44.6219 23.0313ZM21.625 33.8126C21.625 34.0612 21.5262 34.2997 21.3504 34.4755C21.1746 34.6513 20.9361 34.7501 20.6875 34.7501C20.4389 34.7501 20.2004 34.6513 20.0246 34.4755C19.8488 34.2997 19.75 34.0612 19.75 33.8126V26.3126C19.75 26.0639 19.8488 25.8255 20.0246 25.6496C20.2004 25.4738 20.4389 25.3751 20.6875 25.3751C20.9361 25.3751 21.1746 25.4738 21.3504 25.6496C21.5262 25.8255 21.625 26.0639 21.625 26.3126V33.8126ZM31 34.7501C30.2583 34.7501 29.5333 34.5301 28.9166 34.1181C28.2999 33.706 27.8193 33.1203 27.5355 32.4351C27.2516 31.7499 27.1774 30.9959 27.3221 30.2685C27.4667 29.541 27.8239 28.8729 28.3483 28.3484C28.8728 27.824 29.541 27.4668 30.2684 27.3221C30.9958 27.1774 31.7498 27.2517 32.4351 27.5355C33.1203 27.8193 33.706 28.3 34.118 28.9167C34.5301 29.5334 34.75 30.2584 34.75 31.0001C34.75 31.9946 34.3549 32.9484 33.6516 33.6517C32.9484 34.355 31.9946 34.7501 31 34.7501ZM42.25 35.6876C42.25 35.9362 42.1512 36.1747 41.9754 36.3505C41.7996 36.5263 41.5611 36.6251 41.3125 36.6251C41.0639 36.6251 40.8254 36.5263 40.6496 36.3505C40.4738 36.1747 40.375 35.9362 40.375 35.6876V28.1876C40.375 27.9389 40.4738 27.7005 40.6496 27.5246C40.8254 27.3488 41.0639 27.2501 41.3125 27.2501C41.5611 27.2501 41.7996 27.3488 41.9754 27.5246C42.1512 27.7005 42.25 27.9389 42.25 28.1876V35.6876Z" fill="#4FB848"/>
</svg>
