<svg width="62" height="62" viewBox="0 0 62 62" fill="none" xmlns="http://www.w3.org/2000/svg">
<rect x="0.5" y="0.5" width="61" height="61" rx="7.5" fill="white"/>
<rect x="0.5" y="0.5" width="61" height="61" rx="7.5" stroke="#4FB848"/>
<path d="M42.25 20.6875V24.9062C42.25 25.1549 42.1512 25.3933 41.9754 25.5692C41.7996 25.745 41.5611 25.8438 41.3125 25.8438C41.0639 25.8438 40.8254 25.745 40.6496 25.5692C40.4738 25.3933 40.375 25.1549 40.375 24.9062V21.625H37.0938C36.8451 21.625 36.6067 21.5262 36.4308 21.3504C36.255 21.1746 36.1562 20.9361 36.1562 20.6875C36.1562 20.4389 36.255 20.2004 36.4308 20.0246C36.6067 19.8488 36.8451 19.75 37.0938 19.75H41.3125C41.5611 19.75 41.7996 19.8488 41.9754 20.0246C42.1512 20.2004 42.25 20.4389 42.25 20.6875ZM41.3125 36.1562C41.0639 36.1562 40.8254 36.255 40.6496 36.4308C40.4738 36.6067 40.375 36.8451 40.375 37.0938V40.375H37.0938C36.8451 40.375 36.6067 40.4738 36.4308 40.6496C36.255 40.8254 36.1562 41.0639 36.1562 41.3125C36.1562 41.5611 36.255 41.7996 36.4308 41.9754C36.6067 42.1512 36.8451 42.25 37.0938 42.25H41.3125C41.5611 42.25 41.7996 42.1512 41.9754 41.9754C42.1512 41.7996 42.25 41.5611 42.25 41.3125V37.0938C42.25 36.8451 42.1512 36.6067 41.9754 36.4308C41.7996 36.255 41.5611 36.1562 41.3125 36.1562ZM24.9062 40.375H21.625V37.0938C21.625 36.8451 21.5262 36.6067 21.3504 36.4308C21.1746 36.255 20.9361 36.1562 20.6875 36.1562C20.4389 36.1562 20.2004 36.255 20.0246 36.4308C19.8488 36.6067 19.75 36.8451 19.75 37.0938V41.3125C19.75 41.5611 19.8488 41.7996 20.0246 41.9754C20.2004 42.1512 20.4389 42.25 20.6875 42.25H24.9062C25.1549 42.25 25.3933 42.1512 25.5692 41.9754C25.745 41.7996 25.8438 41.5611 25.8438 41.3125C25.8438 41.0639 25.745 40.8254 25.5692 40.6496C25.3933 40.4738 25.1549 40.375 24.9062 40.375ZM20.6875 25.8438C20.9361 25.8438 21.1746 25.745 21.3504 25.5692C21.5262 25.3933 21.625 25.1549 21.625 24.9062V21.625H24.9062C25.1549 21.625 25.3933 21.5262 25.5692 21.3504C25.745 21.1746 25.8438 20.9361 25.8438 20.6875C25.8438 20.4389 25.745 20.2004 25.5692 20.0246C25.3933 19.8488 25.1549 19.75 24.9062 19.75H20.6875C20.4389 19.75 20.2004 19.8488 20.0246 20.0246C19.8488 20.2004 19.75 20.4389 19.75 20.6875V24.9062C19.75 25.1549 19.8488 25.3933 20.0246 25.5692C20.2004 25.745 20.4389 25.8438 20.6875 25.8438ZM27.8359 32.5832C26.5624 33.1357 25.4555 34.0115 24.625 35.1238C24.5202 35.2631 24.4563 35.4288 24.4405 35.6024C24.4247 35.776 24.4576 35.9506 24.5355 36.1065C24.6134 36.2624 24.7332 36.3936 24.8815 36.4851C25.0298 36.5767 25.2007 36.6252 25.375 36.625H36.625C36.7993 36.6252 36.9702 36.5767 37.1185 36.4851C37.2668 36.3936 37.3866 36.2624 37.4645 36.1065C37.5424 35.9506 37.5753 35.776 37.5595 35.6024C37.5437 35.4288 37.4798 35.2631 37.375 35.1238C36.5445 34.0115 35.4376 33.1357 34.1641 32.5832C34.8621 31.9459 35.3512 31.1124 35.5671 30.1921C35.783 29.2718 35.7156 28.3078 35.3738 27.4265C35.032 26.5452 34.4318 25.7878 33.6519 25.2538C32.8719 24.7197 31.9488 24.434 31.0035 24.434C30.0583 24.434 29.1351 24.7197 28.3552 25.2538C27.5752 25.7878 26.975 26.5452 26.6332 27.4265C26.2914 28.3078 26.224 29.2718 26.4399 30.1921C26.6558 31.1124 27.1449 31.9459 27.843 32.5832H27.8359Z" fill="#4FB848"/>
</svg>
